<?xml version="1.0" encoding="UTF-8" standalone="no"?>
<!-- Created with Inkscape (http://www.inkscape.org/) -->

<svg
   xmlns:osb="http://www.openswatchbook.org/uri/2009/osb"
   xmlns:dc="http://purl.org/dc/elements/1.1/"
   xmlns:cc="http://creativecommons.org/ns#"
   xmlns:rdf="http://www.w3.org/1999/02/22-rdf-syntax-ns#"
   xmlns:svg="http://www.w3.org/2000/svg"
   xmlns="http://www.w3.org/2000/svg"
   xmlns:sodipodi="http://sodipodi.sourceforge.net/DTD/sodipodi-0.dtd"
   xmlns:inkscape="http://www.inkscape.org/namespaces/inkscape"
   width="832.3028"
   height="201.09572"
   viewBox="0 0 220.21345 53.206575"
   version="1.1"
   id="svg8"
   inkscape:version="0.92.1 r15371"
   sodipodi:docname="jsw4net-logo-example.svg">
  <title
     id="title4531">Logo 2018</title>
  <defs
     id="defs2">
    <linearGradient
       id="linearGradient4552"
       osb:paint="solid">
      <stop
         style="stop-color:#000000;stop-opacity:1;"
         offset="0"
         id="stop4550" />
    </linearGradient>
  </defs>
  <sodipodi:namedview
     id="base"
     pagecolor="#ffffff"
     bordercolor="#666666"
     borderopacity="1.0"
     inkscape:pageopacity="0.0"
     inkscape:pageshadow="2"
     inkscape:zoom="1.4730216"
     inkscape:cx="297.00854"
     inkscape:cy="100.54786"
     inkscape:document-units="mm"
     inkscape:current-layer="layer1"
     showgrid="false"
     showguides="true"
     inkscape:guide-bbox="true"
     inkscape:window-width="1680"
     inkscape:window-height="987"
     inkscape:window-x="-8"
     inkscape:window-y="-8"
     inkscape:window-maximized="1"
     units="px"
     fit-margin-top="0"
     fit-margin-left="0"
     fit-margin-right="0"
     fit-margin-bottom="0"
     inkscape:pagecheckerboard="true" />
  <metadata
     id="metadata5">
    <rdf:RDF>
      <cc:Work
         rdf:about="">
        <dc:format>image/svg+xml</dc:format>
        <dc:type
           rdf:resource="http://purl.org/dc/dcmitype/StillImage" />
        <dc:title>Logo 2018</dc:title>
      </cc:Work>
    </rdf:RDF>
  </metadata>
  <g
     inkscape:label="Layer 1"
     inkscape:groupmode="layer"
     id="layer1"
     transform="translate(-19.476834,-163.2098)">
    <circle
       style="fill:#1854e0;fill-opacity:1;stroke-width:0.40993619"
       id="path3688"
       cx="131.88281"
       cy="187.16142"
       r="23.951622" />
    <path
       inkscape:connector-curvature="0"
       id="path3693"
       style="font-style:normal;font-variant:normal;font-weight:900;font-stretch:normal;font-size:50.79999924px;line-height:16.81254578px;font-family:Verb;-inkscape-font-specification:'Verb, Heavy';font-variant-ligatures:normal;font-variant-caps:normal;font-variant-numeric:normal;font-feature-settings:normal;text-align:start;letter-spacing:0px;word-spacing:0px;writing-mode:lr-tb;text-anchor:start;fill:#000000;fill-opacity:1;stroke:none;stroke-width:0.3362509"
       d="m 25.166434,174.96358 h 9.753599 v -7.3152 h -9.753599 z m 9.601199,2.8956 h -9.397999 v 25.60319 c 0,3.556 0,4.2672 -5.8928,6.2484 l 2.9972,6.7056 c 12.293599,-2.6924 12.293599,-6.096 12.293599,-13.716 z" />
    <path
       inkscape:connector-curvature="0"
       id="path3695"
       style="font-style:normal;font-variant:normal;font-weight:900;font-stretch:normal;font-size:50.79999924px;line-height:16.81254578px;font-family:Verb;-inkscape-font-specification:'Verb, Heavy';font-variant-ligatures:normal;font-variant-caps:normal;font-variant-numeric:normal;font-feature-settings:normal;text-align:start;letter-spacing:0px;word-spacing:0px;writing-mode:lr-tb;text-anchor:start;fill:#000000;fill-opacity:1;stroke:none;stroke-width:0.3362509"
       d="m 54.786008,187.86678 c -3.6068,-0.9144 -6.7564,-1.27 -6.7564,-2.5908 0,-0.6604 0.762,-1.016 2.2352,-1.016 2.5908,0 6.7564,1.1176 9.2456,2.0828 l 3.556,-6.0452 c -2.9972,-1.3716 -8.4328,-2.9972 -13.4112,-2.9972 -7.4168,0 -11.0236,3.6576 -11.0236,8.3312 0,5.4356 4.826,7.72159 9.2456,8.83919 3.302,0.8128 6.9088,1.3208 6.9088,2.5908 0,0.508 -0.5588,0.9652 -2.1336,0.9652 -2.9972,0 -8.128,-1.6256 -10.9728,-3.048 l -3.6068,6.5532 c 3.1496,1.6764 9.1948,3.556 14.7828,3.556 7.5184,0 11.3792,-3.4036 11.3792,-8.382 0,-5.68959 -5.08,-7.72159 -9.4488,-8.83919 z" />
    <path
       inkscape:connector-curvature="0"
       id="path3697"
       style="font-style:normal;font-variant:normal;font-weight:900;font-stretch:normal;font-size:50.79999924px;line-height:16.81254578px;font-family:Verb;-inkscape-font-specification:'Verb, Heavy';font-variant-ligatures:normal;font-variant-caps:normal;font-variant-numeric:normal;font-feature-settings:normal;text-align:start;letter-spacing:0px;word-spacing:0px;writing-mode:lr-tb;text-anchor:start;fill:#000000;fill-opacity:1;stroke:none;stroke-width:0.3362509"
       d="m 90.958782,204.52917 h 8.6868 l 8.178798,-26.66999 h -9.905998 l -3.4036,16.40839 -4.3688,-16.40839 h -7.5184 l -4.3688,16.40839 -3.4036,-16.40839 h -9.9568 l 8.1788,26.66999 h 8.7376 l 4.572,-15.49399 z" />
    <path
       inkscape:connector-curvature="0"
       id="path3699"
       style="font-style:italic;font-variant:normal;font-weight:900;font-stretch:normal;font-size:50.79999924px;line-height:16.81254578px;font-family:Verb;-inkscape-font-specification:'Verb, Heavy Italic';font-variant-ligatures:normal;font-variant-caps:normal;font-variant-numeric:normal;font-feature-settings:normal;text-align:start;letter-spacing:0px;word-spacing:0px;writing-mode:lr-tb;text-anchor:start;fill:#ffffff;fill-opacity:1;stroke:none;stroke-width:0.3362509"
       d="m 129.76221,204.52917 h 9.7536 l 1.0668,-6.1976 h 5.334 l 1.4224,-8.02639 h -5.334 l 3.81,-21.336 h -12.954 l -19.3548,22.70759 -1.2192,6.6548 h 18.542 z m -5.6388,-14.22399 10.3632,-12.3952 -2.2352,12.3952 z" />
    <path
       inkscape:connector-curvature="0"
       id="path3701"
       style="font-style:normal;font-variant:normal;font-weight:900;font-stretch:normal;font-size:50.79999924px;line-height:16.81254578px;font-family:Verb;-inkscape-font-specification:'Verb, Heavy';font-variant-ligatures:normal;font-variant-caps:normal;font-variant-numeric:normal;font-feature-settings:normal;text-align:start;letter-spacing:0px;word-spacing:0px;writing-mode:lr-tb;text-anchor:start;fill:#000000;fill-opacity:1;stroke:none;stroke-width:0.3362509;fill-rule:nonzero"
       d="m 166.65735,177.85918 h -9.398 v 26.66999 h 9.398 v -17.22119 c 1.524,-1.4732 3.9116,-2.794 6.0452,-2.794 2.1844,0 2.7432,1.4732 2.7432,3.556 v 16.45919 h 9.398 v -18.69439 c 0,-5.3848 -2.54,-8.5344 -8.2804,-8.5344 -4.064,0 -7.366,1.6764 -9.906,3.3528 z" />
    <path
       inkscape:connector-curvature="0"
       id="path3703"
       style="font-style:normal;font-variant:normal;font-weight:900;font-stretch:normal;font-size:50.79999924px;line-height:16.81254578px;font-family:Verb;-inkscape-font-specification:'Verb, Heavy';font-variant-ligatures:normal;font-variant-caps:normal;font-variant-numeric:normal;font-feature-settings:normal;text-align:start;letter-spacing:0px;word-spacing:0px;writing-mode:lr-tb;text-anchor:start;fill:#000000;fill-opacity:1;stroke:none;stroke-width:0.3362509"
       d="m 215.15706,193.14997 c 0,0 0.508,-1.67639 0.508,-3.91159 0,-6.9088 -4.3688,-11.938 -13.3604,-11.938 -8.8392,0 -13.9192,5.2324 -13.9192,14.0208 0,9.60119 5.8928,13.76679 13.3604,13.76679 6.5024,0 12.1412,-3.0988 14.0716,-4.1148 l -3.3528,-5.7404 c -3.556,1.7272 -7.112,2.9972 -9.7028,2.9972 -2.9464,0 -4.4196,-1.6764 -4.7752,-5.08 z m -12.7508,-9.29639 c 2.794,0 4.064,1.6256 4.1148,4.4704 h -8.4836 c 0.4572,-2.8956 1.778,-4.4704 4.3688,-4.4704 z" />
    <path
       inkscape:connector-curvature="0"
       id="path3705"
       style="font-style:normal;font-variant:normal;font-weight:900;font-stretch:normal;font-size:50.79999924px;line-height:16.81254578px;font-family:Verb;-inkscape-font-specification:'Verb, Heavy';font-variant-ligatures:normal;font-variant-caps:normal;font-variant-numeric:normal;font-feature-settings:normal;text-align:start;letter-spacing:0px;word-spacing:0px;writing-mode:lr-tb;text-anchor:start;fill:#000000;fill-opacity:1;stroke:none;stroke-width:0.3362509"
       d="m 217.74468,184.66638 h 3.6576 v 9.90599 c 0,7.0104 2.6924,10.5156 8.8392,10.5156 4.0132,0 7.4676,-1.4224 9.4488,-2.3368 l -3.2512,-6.9088 c -0.5588,0.254 -2.4384,1.1176 -3.6068,1.1176 -0.9144,0 -2.1336,-0.1524 -2.1336,-2.3368 v -9.95679 h 7.2136 v -6.8072 h -7.2136 v -7.7216 l -9.2964,1.016 v 6.7056 h -3.6576 z" />
  </g>
</svg>
